<svg width="136" height="124" viewBox="0 0 136 124" fill="none" xmlns="http://www.w3.org/2000/svg">
<path d="M117.355 0.337402C122.263 0.337402 126.969 2.28684 130.439 5.75687C133.909 9.2269 135.858 13.9333 135.858 18.8406V31.1761H123.523V105.189C123.523 110.096 121.574 114.803 118.104 118.273C114.634 121.743 109.927 123.692 105.02 123.692H18.6714C13.7641 123.692 9.05771 121.743 5.58768 118.273C2.11765 114.803 0.168213 110.096 0.168213 105.189V92.8535H98.8521V105.189C98.8522 106.7 99.4069 108.158 100.411 109.287C101.415 110.416 102.798 111.137 104.298 111.314L105.02 111.357C106.53 111.357 107.989 110.802 109.117 109.798C110.246 108.794 110.968 107.411 111.144 105.911L111.188 105.189V12.6729H31.0069C29.4962 12.6731 28.0382 13.2277 26.9092 14.2316C25.7803 15.2354 25.0591 16.6187 24.8823 18.119L24.8392 18.8406V80.518H12.5037V18.8406C12.5037 13.9333 14.4531 9.2269 17.9232 5.75687C21.3932 2.28684 26.0996 0.337402 31.0069 0.337402H117.355Z" fill="#00EAB1"/>
</svg>
