<svg width="182" height="143" viewBox="0 0 182 143" fill="none" xmlns="http://www.w3.org/2000/svg">
<path d="M93.4196 69.4786L99.2264 63.675L94.734 59.1826L81.2664 72.6534L94.734 86.1242L99.2264 81.6318L93.4196 75.8282H108.149V69.4786H93.4196Z" fill="#00EAB1"/>
<path d="M81.6266 54.7774L75.8198 48.9739L80.3122 44.4815L93.7799 57.9523L80.3122 71.4231L75.8198 66.9307L81.6266 61.1271H66.3394V54.7774H81.6266Z" fill="#00EAB1"/>
<path d="M38.5268 58.7896C22.5619 58.7896 9.6311 45.8588 9.6311 29.8939C9.6311 13.929 22.5619 0.998199 38.5268 0.998199C54.4917 0.998199 67.4225 13.929 67.4225 29.8939C67.4225 45.8588 54.4917 58.7896 38.5268 58.7896ZM38.5268 49.1577C49.1701 49.1577 57.7906 40.5371 57.7906 29.8939C57.7906 19.2506 49.1701 10.6301 38.5268 10.6301C27.8836 10.6301 19.263 19.2506 19.263 29.8939C19.263 40.5371 27.8836 49.1577 38.5268 49.1577Z" fill="#00EAB1"/>
<path d="M0.000400898 103.017C0.000400443 97.8192 1.02418 92.6723 3.01329 87.8702C5.00241 83.0681 7.91789 78.7047 11.5933 75.0293C15.2687 71.3539 19.632 68.4384 24.4342 66.4493C29.2363 64.4602 34.3832 63.4364 39.581 63.4364C44.7788 63.4364 49.9257 64.4602 54.7279 66.4493C59.53 68.4384 63.8933 71.3539 67.5687 75.0293C71.2441 78.7047 74.1596 83.0681 76.1487 87.8702C78.1378 92.6723 79.1616 97.8192 79.1616 103.017L71.2455 103.017C71.2455 98.8588 70.4265 94.7413 68.8352 90.8996C67.2439 87.0578 64.9115 83.5672 61.9712 80.6269C59.0309 77.6865 55.5402 75.3542 51.6985 73.7629C47.8568 72.1716 43.7392 71.3525 39.581 71.3526C35.4228 71.3526 31.3052 72.1716 27.4635 73.7629C23.6218 75.3542 20.1312 77.6865 17.1908 80.6269C14.2505 83.5672 11.9181 87.0579 10.3268 90.8996C8.73555 94.7413 7.91652 98.8588 7.91652 103.017L0.000400898 103.017Z" fill="#00EAB1"/>
<path d="M141.103 58.7914C125.139 58.7914 112.208 45.8606 112.208 29.8957C112.208 13.9308 125.139 1 141.103 1C157.068 1 169.999 13.9308 169.999 29.8957C169.999 45.8606 157.068 58.7914 141.103 58.7914ZM141.103 49.1595C151.747 49.1595 160.367 40.5389 160.367 29.8957C160.367 19.2524 151.747 10.6319 141.103 10.6319C130.46 10.6319 121.84 19.2524 121.84 29.8957C121.84 40.5389 130.46 49.1595 141.103 49.1595Z" fill="#00EAB1"/>
<path d="M102.576 103.019C102.576 97.821 103.6 92.6741 105.589 87.872C107.578 83.0699 110.494 78.7065 114.169 75.0311C117.845 71.3557 122.208 68.4402 127.01 66.4511C131.812 64.462 136.959 63.4382 142.157 63.4382C147.355 63.4382 152.502 64.462 157.304 66.4511C162.106 68.4402 166.469 71.3557 170.145 75.0311C173.82 78.7065 176.736 83.0699 178.725 87.872C180.714 92.6741 181.738 97.821 181.738 103.019L173.821 103.019C173.821 98.8606 173.002 94.7431 171.411 90.9014C169.82 87.0596 167.487 83.569 164.547 80.6287C161.607 77.6883 158.116 75.356 154.274 73.7647C150.433 72.1734 146.315 71.3544 142.157 71.3544C137.999 71.3544 133.881 72.1734 130.039 73.7647C126.198 75.356 122.707 77.6883 119.767 80.6287C116.826 83.569 114.494 87.0597 112.903 90.9014C111.311 94.7431 110.492 98.8606 110.492 103.019L102.576 103.019Z" fill="#00EAB1"/>
<path d="M49.8277 34.9138C49.8277 35.9531 49.623 36.9822 49.2253 37.9423C48.8275 38.9025 48.2446 39.7749 47.5098 40.5098C46.7749 41.2446 45.9025 41.8275 44.9423 42.2253C43.9822 42.623 42.9531 42.8277 41.9138 42.8277C40.8746 42.8277 39.8455 42.623 38.8853 42.2253C37.9252 41.8275 37.0528 41.2446 36.3179 40.5098C35.583 39.7749 35.0001 38.9025 34.6024 37.9423C34.2047 36.9822 34 35.9531 34 34.9138H37.1655C37.1655 35.5374 37.2884 36.1548 37.527 36.7309C37.7656 37.307 38.1154 37.8305 38.5563 38.2714C38.9972 38.7123 39.5206 39.0621 40.0967 39.3007C40.6728 39.5393 41.2903 39.6621 41.9138 39.6621C42.5374 39.6621 43.1548 39.5393 43.7309 39.3007C44.307 39.0621 44.8305 38.7123 45.2714 38.2714C45.7123 37.8305 46.0621 37.307 46.3007 36.7309C46.5393 36.1548 46.6621 35.5374 46.6621 34.9138H49.8277Z" fill="#00EAB1"/>
<path d="M147.731 35.0036C147.731 36.117 147.512 37.2195 147.086 38.2481C146.66 39.2767 146.035 40.2114 145.248 40.9986C144.461 41.7859 143.526 42.4104 142.498 42.8365C141.469 43.2626 140.367 43.4818 139.253 43.4818C138.14 43.4818 137.037 43.2626 136.009 42.8365C134.98 42.4104 134.045 41.7859 133.258 40.9986C132.471 40.2114 131.846 39.2767 131.42 38.2481C130.994 37.2195 130.775 36.117 130.775 35.0036L134.166 35.0036C134.166 35.6716 134.298 36.3331 134.553 36.9503C134.809 37.5675 135.184 38.1283 135.656 38.6006C136.128 39.073 136.689 39.4477 137.306 39.7033C137.924 39.959 138.585 40.0906 139.253 40.0906C139.921 40.0906 140.583 39.959 141.2 39.7033C141.817 39.4477 142.378 39.073 142.85 38.6006C143.323 38.1283 143.697 37.5675 143.953 36.9503C144.208 36.3331 144.34 35.6716 144.34 35.0036H147.731Z" fill="#00EAB1"/>
</svg>
