<svg width="163" height="163" viewBox="0 0 163 163" fill="none" xmlns="http://www.w3.org/2000/svg">
<g clip-path="url(#clip0_1_119)">
<path d="M34.2138 61.1164C35.998 61.1164 37.709 61.8251 38.9705 63.0866C40.2321 64.3482 40.9408 66.0592 40.9408 67.8433C51.5099 67.8278 61.7742 71.3835 70.0687 77.9338H84.6662C93.6266 77.9338 101.686 81.8287 107.222 88.0176L128.392 88.0243C134.75 88.0225 140.979 89.8233 146.356 93.2178C151.733 96.6123 156.038 101.461 158.771 107.203C142.861 128.198 117.104 141.84 88.0297 141.84C69.2614 141.84 53.3858 137.784 40.5372 130.687C40.0666 131.986 39.2069 133.107 38.0752 133.9C36.9436 134.692 35.5952 135.116 34.2138 135.113H14.0329C12.2488 135.113 10.5378 134.404 9.2762 133.143C8.01464 131.881 7.30591 130.17 7.30591 128.386V67.8433C7.30591 66.0592 8.01464 64.3482 9.2762 63.0866C10.5378 61.8251 12.2488 61.1164 14.0329 61.1164H34.2138ZM40.9476 81.2973L40.9408 115.074L41.2435 115.296C53.3185 123.771 69.0462 128.386 88.0297 128.386C108.238 128.386 127.04 120.61 140.736 107.331L141.63 106.436L140.823 105.763C137.647 103.276 133.796 101.799 129.771 101.525L128.392 101.478L114.184 101.472C114.675 103.638 114.938 105.891 114.938 108.205V114.932H54.3948V101.478L100.071 101.472L99.8423 100.947C98.5531 98.2529 96.5701 95.9508 94.0969 94.2768C91.6237 92.6027 88.7495 91.6172 85.7695 91.4214L84.6662 91.3878H64.9562C61.8302 88.1906 58.0965 85.6509 53.9745 83.918C49.8526 82.1851 45.4257 81.2941 40.9543 81.2973H40.9476ZM27.4869 74.5703H20.7599V121.659H27.4869V74.5703ZM92.3754 24.6225L94.7567 27.0105L97.1381 24.6292C98.6974 23.0565 100.552 21.8074 102.596 20.9534C104.639 20.0995 106.831 19.6576 109.046 19.653C111.26 19.6485 113.454 20.0814 115.501 20.927C117.548 21.7726 119.408 23.0141 120.974 24.5804C122.539 26.1466 123.78 28.0067 124.625 30.0539C125.47 32.101 125.903 34.2949 125.897 36.5096C125.892 38.7243 125.45 40.9162 124.595 42.9594C123.741 45.0026 122.491 46.8569 120.918 48.4158L94.7567 74.5703L68.5887 48.4024C67.0161 46.843 65.7669 44.9883 64.913 42.9449C64.059 40.9014 63.6171 38.7095 63.6126 36.4948C63.608 34.2801 64.041 32.0863 64.8866 30.0394C65.7322 27.9925 66.9737 26.1327 68.5399 24.5669C70.1062 23.0011 71.9663 21.7601 74.0134 20.9151C76.0606 20.0701 78.2545 19.6378 80.4692 19.6429C82.6839 19.6481 84.8757 20.0906 86.9189 20.9452C88.9621 21.7997 90.8164 23.0494 92.3754 24.6225ZM78.1142 34.1411C77.5566 34.6956 77.2109 35.4278 77.1372 36.2107C77.0635 36.9935 77.2663 37.7774 77.7105 38.4262L78.1007 38.8904L94.7567 55.533L111.413 38.8904C111.97 38.3339 112.314 37.5995 112.385 36.8152C112.457 36.0309 112.251 35.2465 111.803 34.5986L111.413 34.1277C110.855 33.5715 110.121 33.2285 109.336 33.1585C108.552 33.0884 107.768 33.2957 107.121 33.7443L106.65 34.1344L94.75 46.0277L82.8634 34.121L82.406 33.7443C81.7581 33.2966 80.9736 33.0904 80.1894 33.1617C79.4051 33.233 78.6707 33.5772 78.1142 34.1344V34.1411Z" fill="#00EAB1"/>
</g>
<defs>
<clipPath id="clip0_1_119">
<rect width="161.448" height="161.448" fill="white" transform="translate(0.579102 0.578125)"/>
</clipPath>
</defs>
</svg>
