<svg width="163" height="163" viewBox="0 0 163 163" fill="none" xmlns="http://www.w3.org/2000/svg">
<g clip-path="url(#clip0_1_123)">
<path d="M14.0327 34.2135L61.1216 14.0326L101.484 34.2135L143.884 16.0439C144.396 15.8245 144.954 15.7356 145.508 15.7852C146.063 15.8348 146.597 16.0214 147.062 16.3281C147.526 16.6349 147.908 17.0522 148.171 17.5427C148.435 18.0332 148.573 18.5815 148.572 19.1383V128.391L101.484 148.572L61.1216 128.391L18.7214 146.561C18.2096 146.78 17.6513 146.869 17.0966 146.82C16.542 146.77 16.0083 146.583 15.5435 146.277C15.0787 145.97 14.6974 145.553 14.4337 145.062C14.17 144.572 14.0322 144.023 14.0327 143.466V34.2135ZM108.21 131.048L135.118 119.518V34.4355L108.21 45.9656V131.048ZM94.7565 130.167V45.8916L67.8486 32.4376V116.713L94.7565 130.167ZM54.3946 116.639V31.5564L27.4867 43.0864V128.169L54.3946 116.639Z" fill="#00EAB1"/>
</g>
<defs>
<clipPath id="clip0_1_123">
<rect width="161.448" height="161.448" fill="white" transform="translate(0.578613 0.578125)"/>
</clipPath>
</defs>
</svg>
