<svg width="135" height="135" viewBox="0 0 135 135" fill="none" xmlns="http://www.w3.org/2000/svg">
<path d="M67.3028 74.0312C78.4494 74.0312 87.4838 83.0655 87.4838 94.2121C87.4838 99.9301 85.1091 105.083 81.2949 108.756L68.4464 121.12H87.4838V134.574H47.1218V122.977L71.9646 99.0623C73.2427 97.8313 74.0298 96.1159 74.0298 94.2121C74.0298 90.4988 71.0161 87.4852 67.3028 87.4852C63.5895 87.4852 60.5758 90.4988 60.5758 94.2121H47.1218C47.1218 83.0655 56.1562 74.0312 67.3028 74.0312ZM107.665 74.0312V100.939H121.119V74.0312H134.573V134.574H121.119V114.393H94.2107V74.0312H107.665ZM13.4869 67.3042C13.4869 84.3033 21.3642 99.4592 33.6679 109.321V125.573C13.5609 113.942 0.032959 92.2075 0.032959 67.3042H13.4869ZM67.3028 0.0343628C102.182 0.0343628 130.866 26.5858 134.236 60.5772H120.702C117.392 34.0325 94.7489 13.4883 67.3028 13.4883C48.8036 13.4883 32.4839 22.8187 22.8038 37.0328H40.3949V50.4867H0.032959V10.1248H13.4869V26.9423C25.7569 10.5957 45.2988 0.0343628 67.3028 0.0343628Z" fill="#00EAB1"/>
</svg>
